<svg width="529.16pt" height="453.71pt" version="1.1" viewBox="0 0 529.16 453.71" xmlns="http://www.w3.org/2000/svg">
 <path d="m523.2 43.701c-17.359 17.359-59.359 45.359-126 30.238-35.84-7.8398-69.441-8.3984-90.719-7.8398-0.55859 0-1.1211-0.55859-1.1211-1.1211 1.6797-17.922 0.55859-39.762-7.2812-62.16-1.1211-3.3594-6.1602-3.9219-7.8398-0.55859-9.5195 19.602-35.84 66.641-75.039 85.121-11.762 5.6016-21.84 13.441-29.121 23.52-7.8398 10.641-18.48 22.398-33.039 33.602-18.48 14-36.961 21.281-51.52 25.762-10.641 3.3594-15.121 15.68-8.9609 24.641 8.3984 12.879 22.398 28 42.559 34.719 1.1211 0.55859 1.6797-0.55859 1.6797-1.6797-1.6797-5.0391-5.6016-16.238-5.0391-24.078 0-1.1211 1.1211-1.6797 2.2383-0.55859 3.9219 3.3594 14 10.641 31.922 10.641 1.1211 0 1.6797-1.6797 0.55859-2.2383-3.9219-3.3594-10.078-9.5195-11.199-17.922 0-1.1211 1.1211-1.6797 1.6797-1.1211 4.4805 2.8008 14.559 8.9609 29.68 8.9609 1.1211 0 1.6797-1.6797 0.55859-2.2383-3.9219-2.8008-9.5195-7.8398-8.9609-18.48 0-0.55859 0.55859-1.1211 1.1211-1.1211 5.0391-0.55859 28-2.2383 49.84 4.4805 1.1211 0.55859 1.1211 1.6797 0 2.2383-4.4805 2.2383-9.5195 4.4805-14.559 7.2812-12.879 7.2812-22.398 15.121-30.238 22.398-2.2383 1.6797-6.1602 4.4805-11.762 6.1602-6.7188 1.6797-12.879 0.55859-16.801-1.1211-1.1211-0.55859-2.2383 0.55859-1.6797 1.6797 1.6797 2.8008 5.0391 7.2812 8.9609 8.9609 6.1602 2.8008-7.2812 6.7188-17.922 4.4805-7.8398-1.1211-15.68-4.4805-19.039-5.6016-1.1211-0.55859-2.2383 0.55859-1.6797 1.6797 2.2383 6.1602 8.3984 21.84 25.762 28 1.6797 0.55859 2.8008 1.1211 4.4805 1.1211 13.441 2.8008 28-3.9219 34.16-16.238 0-0.55859 0.55859-1.1211 0.55859-1.6797 0 0 5.6016-10.641 17.922-20.16 12.879-10.078 38.641-18.48 70.559-18.48h0.55859c16.238 9.5195 27.441 28.559 25.199 47.602-1.6797 11.199-7.2812 20.719-12.879 29.68-16.801 26.879-56.559 33.602-85.121 42-24.078 6.7188-48.719 12.879-73.359 16.801-20.16 3.3594-39.762 6.1602-58.801 15.121-25.195 12.871-45.918 33.031-59.918 57.672-5.6016 10.078-10.078 21.281-13.441 32.48-1.1211 5.0391 3.9219 8.9609 8.3984 6.7188 55.441-31.359 90.719-20.719 187.6-16.801 85.684 2.8008 124.88-38.637 135.52-52.637 0.55859-1.1211 2.8008 0 2.2383 1.1211-5.0391 17.922-22.398 42-32.48 54.879-2.2383 2.8008 0.55859 6.7188 3.9219 5.6016 50.398-20.16 80.078-99.121 87.359-120.4 0.55859-1.1211 2.2383-1.1211 2.2383 0.55859 1.6797 24.078-8.3984 52.078-16.238 70.559-1.6797 3.3594 2.8008 6.1602 5.0391 3.3594 84.559-99.121 31.922-179.2 17.922-197.12-0.55859-1.1211 0.55859-2.2383 1.6797-1.6797 21.84 10.078 39.199 35.84 48.16 52.641 2.2383 3.3594 7.2812 2.2383 7.2812-2.2383-0.55859-14-3.3594-28.559-8.9609-41.441-4.4805-9.5195-10.078-17.922-17.922-25.199-7.8398-7.8398-17.359-13.441-27.441-18.48-6.7188-3.3594-13.441-7.2812-20.16-11.762-3.3594-2.2383-6.7188-4.4805-9.5195-6.7188-2.2383-1.6797-5.0391-3.3594-7.2812-5.0391-1.1211-1.1211 0-2.2383 1.1211-2.2383 2.2383 0.55859 4.4805 1.1211 6.1602 1.6797 3.3594 1.1211 6.1602 1.6797 8.9609 2.8008 6.1602 2.2383 11.762 4.4805 17.922 6.1602 6.7188 2.2383 13.441 3.9219 20.16 5.6016 47.602 11.762 75.039-2.2383 87.922-12.879 2.2383-2.2383 0.55859-5.6016-2.8008-5.0391-23.52 5.0391-63.281-3.9219-91.84-16.801-24.641-12.328-58.242-19.605-71.684-21.848-1.1211 0-1.1211-2.2383 0-2.2383 16.801-2.2383 40.32 5.0391 54.32 7.8398 34.16 7.2812 70.559 4.4805 105.28-19.602 16.238-11.199 23.52-26.879 25.762-38.078 1.6797-3.9219-2.8008-6.7227-5.6016-3.9219zm-293.44 71.121-1.1211 5.6016c-1.1211 3.9219-3.3594 7.8398-7.2812 9.5195l-15.117 7.2773c-4.4805 2.2383-7.8398-3.3594-4.4805-6.7188l20.719-19.602c3.3633-3.3594 8.4023-0.55859 7.2812 3.9219z" style="fill:#c80000"/>
</svg>
